<?xml version="1.0" encoding="UTF-8" standalone="no"?>
<!-- Created with Inkscape (http://www.inkscape.org/) -->

<svg
   width="936.56555"
   height="220.23166"
   inkscape:version="1.1 (c68e22c387, 2021-05-23)"
   sodipodi:docname="ultramarine_gitlab_logo_darkbg_small.svg"
   version="1.1"
   viewBox="0 0 936.56553 220.23165"
   xml:space="preserve"
   id="svg1199"
   inkscape:export-filename="/home/user/Pictures/ultramarine_gitlab_favicon2.png"
   inkscape:export-xdpi="96"
   inkscape:export-ydpi="96"
   xmlns:inkscape="http://www.inkscape.org/namespaces/inkscape"
   xmlns:sodipodi="http://sodipodi.sourceforge.net/DTD/sodipodi-0.dtd"
   xmlns:xlink="http://www.w3.org/1999/xlink"
   xmlns="http://www.w3.org/2000/svg"
   xmlns:svg="http://www.w3.org/2000/svg"><defs
     id="defs1181"><linearGradient
       id="linearGradient23250"
       inkscape:swatch="solid"><stop
         style="stop-color:#000080;stop-opacity:1;"
         offset="0"
         id="stop23248" /></linearGradient><clipPath
       id="clipPath16"><path
         d="M 0,48 H 48 V 0 H 0 Z"
         id="path1178" /></clipPath><inkscape:path-effect
       effect="fill_between_many"
       method="originald"
       linkedpaths="#path1227,0,1|#g1191,0,1"
       id="path-effect20477"
       is_visible="true"
       lpeversion="0"
       join="true"
       close="true"
       autoreverse="true"
       applied="false" /><clipPath
       id="clipPath16-3"><path
         d="M 0,48 H 48 V 0 H 0 Z"
         id="path4733" /></clipPath><clipPath
       id="clip1"><path
         d="m 183,8 h 35.37109 V 68 H 183 Z m 0,0"
         id="path35311" /></clipPath><clipPath
       id="clip2"><path
         d="M 0,0 H 92 V 91.210938 H 0 Z m 0,0"
         id="path35314" /></clipPath><clipPath
       id="clip1-5"><path
         d="m 183,8 h 35.37109 V 68 H 183 Z m 0,0"
         id="path46697" /></clipPath><clipPath
       id="clip2-3"><path
         d="M 0,0 H 92 V 91.210938 H 0 Z m 0,0"
         id="path46700" /></clipPath><clipPath
       id="clip1-2"><path
         d="m 183,8 h 35.37109 V 68 H 183 Z m 0,0"
         id="path61841" /></clipPath><clipPath
       id="clip2-9"><path
         d="M 0,0 H 92 V 91.210938 H 0 Z m 0,0"
         id="path61844" /></clipPath><linearGradient
       inkscape:collect="always"
       xlink:href="#linearGradient23250"
       id="linearGradient23252"
       x1="192.73251"
       y1="68.815765"
       x2="612.44873"
       y2="68.815765"
       gradientUnits="userSpaceOnUse" /></defs><sodipodi:namedview
     bordercolor="#666666"
     borderopacity="1.0"
     inkscape:current-layer="g1197"
     inkscape:cx="537.00721"
     inkscape:cy="-15.383019"
     inkscape:pagecheckerboard="false"
     inkscape:pageopacity="0"
     inkscape:pageshadow="2"
     inkscape:window-height="699"
     inkscape:window-maximized="1"
     inkscape:window-width="1366"
     inkscape:window-x="0"
     inkscape:window-y="0"
     inkscape:zoom="0.3575371"
     pagecolor="#a77f7f"
     showgrid="false"
     id="namedview1183"
     fit-margin-top="0"
     fit-margin-left="0"
     fit-margin-right="0"
     fit-margin-bottom="0" /><g
     transform="matrix(1.3333,0,0,-1.3333,-18.415171,49.349922)"
     inkscape:groupmode="layer"
     inkscape:label="ultramarine-anaconda-sus"
     id="g1197"><path
       style="fill:#000000;stroke-width:1.12503;stroke-miterlimit:4;stroke-dasharray:none"
       id="path20884"
       d="" /><path
       style="fill:#000000;stroke-width:1.12503;stroke-miterlimit:4;stroke-dasharray:none"
       id="path20864"
       d="" /><path
       id="path4982-6"
       style="fill:#ffffff;fill-opacity:1;fill-rule:nonzero;stroke:#ffffff;stroke-width:4.25;stroke-linecap:butt;stroke-miterlimit:4;stroke-dasharray:none;stroke-opacity:1;paint-order:stroke markers fill"
       d="m 111.76367,1.2714844 c -3.56134,0 -7.12402,1.3583905 -9.84179,4.0761718 L 82.345703,24.933594 107.18359,49.769531 c 5.77528,-1.946534 12.39413,-0.642988 16.99414,3.957031 4.62758,4.627561 5.92348,11.311819 3.92188,17.105469 l 23.94531,23.9375 c 5.79366,-2.001608 12.46871,-0.707066 17.10547,3.929688 6.46392,6.454731 6.46392,16.931211 0,23.404301 -0.99197,0.99056 -2.08515,1.81108 -3.23633,2.49804 1.03914,0.67443 2.09765,1.32931 3.17969,1.95899 7.51571,4.37608 17.14349,8.41943 27.67578,11.89257 l 19.13477,-19.13281 c 5.42638,-5.43557 5.42638,-14.2494 0,-19.675779 L 121.59766,5.3476562 C 118.88447,2.6298749 115.32501,1.2714844 111.76367,1.2714844 Z M 72.724609,34.546875 8.0585938,99.203125 c -5.4263764,5.435565 -5.4263764,14.251365 0,19.677735 L 27.992188,138.8125 c 39.136037,-6.63981 78.715322,-22.32599 46.80664,-59.554688 7.540081,-2.529464 14.191812,-3.600161 20.177734,-3.529296 1.691196,0.02002 3.310274,0.162426 4.900391,0.357422 C 95.781285,71.249272 94.873521,64.65109 97.210938,59.042969 Z m 29.294921,43.714844 c 0.85827,0.702612 1.77062,1.303731 2.7207,1.80664 -0.94951,-0.502567 -1.86284,-1.104702 -2.7207,-1.80664 z m 2.7207,1.80664 c 0.47505,0.251455 0.95996,0.479644 1.45118,0.681641 v -0.002 c -0.49122,-0.201997 -0.97602,-0.428196 -1.45118,-0.679688 z m 15.06836,1.699219 v 1.960938 c 3.31591,2.202205 6.45192,4.793366 9.52344,7.564453 z m 22.32422,22.347652 c -0.29753,0.72435 -0.54004,1.46512 -0.73047,2.2168 0.19032,-0.75158 0.43309,-1.49256 0.73047,-2.2168 z m -0.73047,2.2168 c -0.0104,0.041 -0.0192,0.082 -0.0293,0.12305 0.01,-0.041 0.0189,-0.0821 0.0293,-0.12305 z m -0.0293,0.12305 c -0.18537,0.75594 -0.31905,1.52231 -0.39649,2.29297 0.0773,-0.77079 0.21119,-1.53691 0.39649,-2.29297 z m -0.39844,2.30469 c -0.0792,0.79372 -0.10162,1.59059 -0.0664,2.38671 -0.0352,-0.79555 -0.0126,-1.59356 0.0664,-2.38671 z m -0.0664,2.38671 c 0.0353,0.79678 0.12758,1.59115 0.27735,2.37696 -0.14978,-0.7859 -0.24209,-1.5801 -0.27735,-2.37696 z m 0.27735,2.37696 c 0.14976,0.78581 0.35688,1.56274 0.62109,2.32422 -0.26422,-0.76156 -0.47132,-1.53833 -0.62109,-2.32422 z m 0.62109,2.32422 c 0.2591,0.74675 0.57621,1.47882 0.94531,2.18945 -0.36923,-0.71086 -0.68613,-1.44243 -0.94531,-2.18945 z m 0.94531,2.18945 c 0.0139,0.0267 0.027,0.0534 0.041,0.0801 -0.014,-0.0266 -0.0272,-0.0534 -0.041,-0.0801 z m 0.041,0.0801 c 0.37395,0.7104 0.80085,1.39955 1.28515,2.06054 -0.48415,-0.66081 -0.91128,-1.35032 -1.28515,-2.06054 z m 1.28515,2.06054 c 0.49291,0.67272 1.04325,1.3175 1.6504,1.92579 -0.60715,-0.60829 -1.15749,-1.25303 -1.6504,-1.92579 z m 1.6504,1.92579 c 0.37899,0.37845 0.77297,0.72852 1.17773,1.0625 -0.40462,-0.334 -0.79893,-0.68423 -1.17773,-1.0625 z m 1.17773,1.0625 c 0.12574,0.10379 0.25673,0.19735 0.38477,0.29687 -0.12795,-0.0994 -0.25911,-0.19319 -0.38477,-0.29687 z m 0.38477,0.29687 c 0.27941,0.21709 0.56199,0.42835 0.85156,0.625 -0.28925,-0.19662 -0.57247,-0.40806 -0.85156,-0.625 z m 0.85156,0.625 c 0.16601,0.11285 0.3348,0.21806 0.5039,0.32422 -0.16908,-0.10602 -0.3379,-0.21148 -0.5039,-0.32422 z m 0.5039,0.32422 c 0.26763,0.16782 0.53777,0.32751 0.8125,0.47851 -0.27461,-0.15118 -0.54499,-0.31058 -0.8125,-0.47851 z m 0.8125,0.47851 c 0.17946,0.0988 0.35879,0.19547 0.54102,0.28711 -0.18208,-0.0914 -0.3617,-0.18855 -0.54102,-0.28711 z M 150,125.17773 c 0.26792,0.13449 0.53915,0.25798 0.8125,0.37696 -0.27298,-0.11914 -0.54494,-0.2424 -0.8125,-0.37696 z m 0.8125,0.37696 c 0.19872,0.0867 0.39636,0.17535 0.59766,0.2539 -0.20122,-0.0783 -0.39901,-0.16744 -0.59766,-0.2539 z m 0.59766,0.2539 c 0.24196,0.0941 0.48714,0.17551 0.73242,0.25782 -0.24526,-0.0826 -0.49048,-0.1634 -0.73242,-0.25782 z m 0.73242,0.25782 c 0.23426,0.0789 0.46624,0.16428 0.70312,0.23242 -0.23672,-0.0678 -0.46902,-0.15387 -0.70312,-0.23242 z m 0.70312,0.23242 c 0.75434,0.21699 1.5221,0.36682 2.29492,0.47461 -0.77269,-0.10662 -1.54067,-0.25866 -2.29492,-0.47461 z m 2.29492,0.47461 c 0.14148,0.0195 0.28198,0.0447 0.42383,0.0605 -0.14184,-0.0161 -0.28235,-0.0408 -0.42383,-0.0605 z m 0.42383,0.0605 c 0.33006,0.0374 0.6608,0.0566 0.99219,0.0742 -0.33106,-0.0171 -0.66245,-0.0374 -0.99219,-0.0742 z m 0.99219,0.0742 c 0.13942,0.007 0.27844,0.0178 0.41797,0.0215 -0.1394,-0.004 -0.27868,-0.0141 -0.41797,-0.0215 z m 0.41797,0.0215 c 0.35259,0.01 0.70412,0.005 1.05664,-0.008 -0.35231,0.0131 -0.70426,0.0171 -1.05664,0.008 z m 1.05664,-0.008 c 0.10166,-0.004 0.20309,-0.008 0.30469,-0.0137 -0.10163,0.005 -0.203,0.0101 -0.30469,0.0137 z m 0.30469,-0.0137 c 0.38141,-0.0206 0.76109,-0.0508 1.14062,-0.0976 -0.37873,0.0472 -0.76002,0.0765 -1.14062,0.0976 z m 1.14062,-0.0976 c 0.0457,-0.006 0.0911,-0.0135 0.13672,-0.0195 -0.0456,0.006 -0.0911,0.0139 -0.13672,0.0195 z m 0.13672,-0.0195 c 2.1868,-0.28826 4.32183,-1.01464 6.27539,-2.17579 -1.95248,1.16057 -4.09089,1.88482 -6.27539,2.17579 z m -53.42187,13.25195 c -0.49122,0.202 -0.97602,0.42957 -1.45118,0.68164 0.47505,-0.25216 0.95996,-0.47769 1.45118,-0.67969 z m -1.45118,0.68164 c -1.42545,0.7562 -2.76859,1.73641 -3.96679,2.92773 -0.404,0.404 -0.781273,0.82443 -1.134768,1.25782 0.353495,-0.43338 0.732728,-0.85187 1.136718,-1.25586 1.1982,-1.19133 2.53972,-2.17322 3.96484,-2.92969 z m 15.06836,-0.19336 c 0.77286,0.38417 1.52423,0.83194 2.2461,1.3418 -0.72136,-0.51 -1.47345,-0.95774 -2.2461,-1.3418 z m 2.2461,1.3418 c 0.021,0.0148 0.0416,0.03 0.0625,0.0449 -0.021,-0.015 -0.0415,-0.0301 -0.0625,-0.0449 z m 0.0625,0.0449 c 0.71242,0.50811 1.39265,1.07954 2.0332,1.71289 -0.64058,-0.63333 -1.32106,-1.2045 -2.0332,-1.71289 z m 2.0332,1.71289 c 0.009,0.008 0.0188,0.0149 0.0273,0.0234 -3.4e-4,-3.5e-4 3.5e-4,-0.002 0,-0.002 -0.008,-0.008 -0.019,-0.0132 -0.0273,-0.0215 z m 0.0273,0.0234 c 0.80761,0.8076 1.5153,1.67654 2.1211,2.59375 -0.60574,-0.91733 -1.31354,-1.78606 -2.1211,-2.59375 z m 2.1211,2.5957 c 0.90864,1.37601 1.59043,2.85789 2.04492,4.39258 -0.45434,-1.53489 -1.1364,-3.0164 -2.04492,-4.39258 z m -29.160158,2.87891 c -0.605586,1.49369 -0.985279,3.05863 -1.136719,4.64062 0.151498,-1.58249 0.530727,-3.1465 1.136719,-4.64062 z m -1.136719,4.64062 c -0.09876,1.03167 -0.09829,2.06943 -0.0039,3.10156 -0.09421,-1.03145 -0.09479,-2.07058 0.0039,-3.10156 z m 32.720707,-1.57422 c 0.20199,1.04318 0.30273,2.10118 0.30273,3.16016 0,-1.05841 -0.10098,-2.11752 -0.30273,-3.16016 z m 0.30273,3.16016 c 0,1.05897 -0.10074,2.11864 -0.30273,3.16211 0.20199,-1.04354 0.30273,-2.10306 0.30273,-3.16211 z m -32.99414,1.78515 c 0.163462,1.5146 0.526973,3.01326 1.107422,4.44532 -0.580667,-1.43251 -0.944056,-2.93024 -1.107422,-4.44532 z m 32.3125,2.92774 c -0.45449,1.53596 -1.13593,3.02062 -2.04492,4.39844 0.90899,-1.37787 1.59043,-2.86238 2.04492,-4.39844 z m -2.04492,4.39844 c -0.60599,0.91854 -1.31311,1.79047 -2.1211,2.59961 0.80799,-0.80914 1.51511,-1.68103 2.1211,-2.59961 z m -26.660158,1.33984 c 0.353495,0.43389 0.730768,0.8552 1.134768,1.25977 3.4e-4,3.4e-4 0.002,-3.5e-4 0.002,0 -0.40399,-0.40457 -0.783223,-0.82589 -1.136718,-1.25977 z m 2.724608,47.36914 v 0.002 c 1.01917,1.01917 2.15555,1.84545 3.36719,2.48243 -1.21167,-0.63698 -2.34802,-1.46521 -3.36719,-2.48438 z m 19.67578,0 c -0.33972,0.33972 -0.69224,0.65782 -1.05664,0.95508 0.36365,-0.29676 0.71758,-0.61406 1.05664,-0.95313 z m -1.05859,0.95703 c -0.72819,0.59377 -1.50355,1.10311 -2.31055,1.52735 0.80776,-0.42466 1.58175,-0.93283 2.31055,-1.52735 z m -10.11328,3.05664 c 0.86658,0.083 1.7386,0.0812 2.60547,0.002 -0.8663,0.0791 -1.73947,0.081 -2.60547,-0.002 z"
       transform="matrix(0.75001875,0,0,-0.75001875,12.404641,36.373214)" /><path
       id="path4982-6-7"
       style="fill:none;fill-opacity:0;fill-rule:nonzero;stroke:#ffffff;stroke-width:3.18758;stroke-linecap:butt;stroke-miterlimit:4;stroke-dasharray:none;stroke-opacity:1;paint-order:stroke markers fill"
       d="m 83.638842,-20.424591 c -4.489555,0.05315 -9.478478,-0.749889 -15.13368,-2.647039 23.932109,-27.92222 -5.753096,-39.687149 -35.105857,-44.667131 L 89.17902,-123.51262 c 1.01919,-1.01919 2.196593,-1.7844 3.452722,-2.294 0.942097,-0.3822 1.929202,-0.62078 2.926831,-0.71633 0.665086,-0.0637 1.334476,-0.0637 1.999562,0 0.997629,0.0955 1.984734,0.33413 2.926835,0.71633 0.94148,0.38195 1.83926,0.90799 2.65875,1.57621 5.3e-4,4.3e-4 9.4e-4,0.001 0.001,0.001 0.27278,0.22251 0.53669,0.46062 0.79103,0.71486 l 0.001,0.001 56.04779,56.043397 c -7.89941,2.604926 -15.12045,5.637511 -20.75736,8.919656 -0.81156,0.472272 -1.60545,0.96344 -2.38482,1.469275 -0.003,-0.002 -0.007,-0.0038 -0.0103,-0.0059 -1.47037,-0.875427 -3.0776,-1.422076 -4.72424,-1.637737 -0.0303,-0.004 -0.0605,-0.0094 -0.0908,-0.01318 -0.28513,-0.03521 -0.57041,-0.05778 -0.85695,-0.07324 -0.0763,-0.0042 -0.15222,-0.0074 -0.22853,-0.01025 -0.26439,-0.0094 -0.52804,-0.01324 -0.7925,-0.0059 -0.10465,0.0028 -0.20891,0.01072 -0.31348,0.01611 -0.24846,0.01319 -0.4967,0.02763 -0.74416,0.05566 -0.10447,0.01168 -0.20781,0.03108 -0.31202,0.04541 -0.58176,0.08083 -1.15928,0.192637 -1.72709,0.355966 -0.1672,0.04809 -0.33114,0.108822 -0.4966,0.164067 -0.19775,0.06578 -0.39544,0.130521 -0.59034,0.206547 -0.1471,0.05754 -0.29128,0.122685 -0.43654,0.18604 -0.20455,0.089 -0.40742,0.182148 -0.60792,0.282722 -0.13864,0.06967 -0.27514,0.14308 -0.41163,0.218268 -0.20085,0.110457 -0.39896,0.226199 -0.59475,0.348641 -0.13397,0.08387 -0.26705,0.168352 -0.39844,0.257819 -0.21161,0.143969 -0.41821,0.298512 -0.62258,0.457042 -0.0991,0.07694 -0.20006,0.149634 -0.29737,0.229987 -0.30301,0.25011 -0.59957,0.512079 -0.88332,0.79543 -0.45537,0.456225 -0.86668,0.939821 -1.23636,1.444372 -0.36969,0.50455 -0.69752,1.030432 -0.98147,1.573282 -0.27852,0.532459 -0.51302,1.082377 -0.709,1.642131 -0.008,0.02311 -0.017,0.0457 -0.0249,0.06885 -0.19216,0.55946 -0.34417,1.129747 -0.45411,1.706585 -0.11232,0.589372 -0.18304,1.185166 -0.20948,1.78276 -0.0264,0.597106 -0.01,1.194773 0.0498,1.790084 5e-5,4.86e-4 -5e-5,9.78e-4 0,0.0015 5e-5,4.81e-4 -5e-5,9.84e-4 0,0.0015 2e-4,0.002 10e-4,0.0039 10e-4,0.0059 0.0594,0.590822 0.16075,1.178668 0.3047,1.757856 6e-4,0.0024 8.6e-4,0.0049 10e-4,0.0073 1.2e-4,4.55e-4 -1.1e-4,0.001 0,0.0015 8.6e-4,0.0034 0.002,0.0068 0.003,0.01025 0.1441,0.57593 0.33029,1.143132 0.55812,1.697797 0.002,0.0039 0.003,0.0078 0.004,0.01172 v 0.0015 l -9.60522,9.603756 c -2.3037,2.078362 -4.65577,4.021781 -7.14276,5.673481 v -42.603115 c 0.57426,-0.285452 1.13341,-0.617923 1.66996,-0.996119 0.0267,-0.01877 0.0526,-0.03814 0.0791,-0.05713 0.52165,-0.373768 1.02089,-0.792086 1.49125,-1.255403 0.012,-0.01186 0.0261,-0.02031 0.0381,-0.03223 2.12103,-2.121026 3.31358,-4.818466 3.57871,-7.588081 0.0741,-0.77377 0.0737,-1.552107 0.003,-2.32623 -0.006,-0.06761 -0.0176,-0.134631 -0.0249,-0.202153 -0.29326,-2.717262 -1.47402,-5.358861 -3.55673,-7.444522 -2.6e-4,-2.6e-4 -10e-4,2.59e-4 -10e-4,0 -2.12103,-2.121026 -4.81843,-3.313575 -7.588082,-3.578703 -0.791893,-0.0758 -1.588653,-0.07589 -2.380431,0 -0.395611,0.03788 -0.789531,0.09418 -1.180693,0.169926 -2.347211,0.454506 -4.587561,1.590754 -6.402992,3.408777 -0.606007,0.606866 -1.136355,1.260803 -1.590861,1.949756 -1.135986,1.721963 -1.798281,3.664652 -1.987843,5.642719 -4.5e-5,4.86e-4 4.7e-5,9.79e-4 0,0.0015 -0.11358,1.186659 -0.0571,2.386426 0.169927,3.55966 9e-5,4.65e-4 -9e-5,0.001 0,0.0015 0.07566,0.390764 0.17074,0.778232 0.284186,1.16165 1.31e-4,4.41e-4 -1.3e-4,0.001 0,0.0015 0.113496,0.383423 0.247164,0.762135 0.398448,1.135282 1.66e-4,4.09e-4 -1.66e-4,0.0011 0,0.0015 0.151336,0.373154 0.322115,0.740177 0.511243,1.100125 1.95e-4,3.7e-4 -1.95e-4,0.0011 0,0.0015 0.189183,0.359956 0.397059,0.71236 0.624039,1.056179 2.16e-4,3.25e-4 -2.14e-4,0.0011 0,0.0015 0.454311,0.688014 0.985178,1.339572 1.590861,1.945361 2.58e-4,2.59e-4 -2.59e-4,0.0012 0,0.0015 1.197742,1.190875 2.589079,2.099625 4.062113,2.705634 v 0.0015 44.470838 c -0.368422,0.151502 -0.730652,0.322647 -1.086941,0.511243 -0.356373,0.188624 -0.706512,0.395148 -1.04739,0.621109 -0.681536,0.451848 -1.328668,0.978041 -1.927782,1.580606 -2.67e-4,2.67e-4 2.66e-4,0.0012 0,0.0015 -0.247728,0.24788 -0.451464,0.521034 -0.673846,0.783711 -1.192617,0.14625 -2.406956,0.253053 -3.675384,0.268073 z" /><text
       xml:space="preserve"
       style="font-style:normal;font-variant:normal;font-weight:normal;font-stretch:normal;font-size:127.813px;line-height:1.25;font-family:Lato;-inkscape-font-specification:Lato;fill:#ffffff;fill-opacity:1;stroke:none;stroke-width:3.06381;stroke-miterlimit:4;stroke-dasharray:none;stroke-opacity:1;paint-order:stroke markers fill"
       x="189.15375"
       y="89.723732"
       id="text65397"
       transform="scale(1,-1)"><tspan
         sodipodi:role="line"
         id="tspan65395"
         style="font-style:normal;font-variant:normal;font-weight:bold;font-stretch:normal;font-family:'Montserrat Alternates';-inkscape-font-specification:'Montserrat Alternates Bold';fill:#ffffff;fill-opacity:1;stroke:none;stroke-width:3.06381;stroke-miterlimit:4;stroke-dasharray:none;stroke-opacity:1;paint-order:stroke markers fill"
         x="189.15375"
         y="89.723732">Sources</tspan></text></g></svg>
