<svg xmlns="http://www.w3.org/2000/svg" xmlns:xlink="http://www.w3.org/1999/xlink" id="svg4451" viewBox="0 0 106.77 106.85"><defs><style>.cls-1,.cls-7{fill:none}.cls-2{clip-path:url(#clip-path)}.cls-3,.cls-6{fill:#000}.cls-3{fill-rule:evenodd}.cls-4{fill:#fefeff}.cls-5{clip-path:url(#clip-path-2)}.cls-7{stroke:#fff;stroke-miterlimit:10;stroke-width:4px}</style><clipPath id="clip-path" transform="translate(-18.67 -18.67)"><rect width="156.47" height="158.63" x="-15.36" y="-13.55" class="cls-1"/></clipPath><clipPath id="clip-path-2" transform="translate(-18.67 -18.67)"><rect width="170.37" height="172.72" x="8.81" y="-2.83" class="cls-1"/></clipPath></defs><g id="layer1"><g id="g1291"><g id="g1293"><g class="cls-2"><g id="g1295"><g id="g1301"><path id="path1303" d="M64,18.67A45.33,45.33,0,1,1,18.67,64,45.34,45.34,0,0,1,64,18.67" class="cls-3" transform="translate(-18.67 -18.67)"/></g><g id="g1305"><path id="path1307" d="M102.24,78.49C95.49,76.93,88.89,74.63,84.38,72,72,64.82,67.76,49.09,50.35,54.93,64.11,71,41,76,25.4,77.5a40.88,40.88,0,0,0,76.84,1" class="cls-4" transform="translate(-18.67 -18.67)"/></g></g></g></g><g id="g1309"><g class="cls-5"><g id="g1311"><g id="g1317"><path id="path1319" d="M106.22,85.24V49.62a6,6,0,0,0-6-6.07H87.74a6,6,0,0,0-6,6.07V85.24H69.52a5.06,5.06,0,0,0-3.7,8.43l25.41,28.6a3.67,3.67,0,0,0,5.52,0l25.41-28.6a5.06,5.06,0,0,0-3.7-8.43Z" class="cls-6" transform="translate(-18.67 -18.67)"/></g><g id="g1321"><path id="path1323" d="M106.22,85.24V49.62a6,6,0,0,0-6-6.07H87.74a6,6,0,0,0-6,6.07V85.24H69.52a5.06,5.06,0,0,0-3.7,8.43l25.41,28.6a3.67,3.67,0,0,0,5.52,0l25.41-28.6a5.06,5.06,0,0,0-3.7-8.43Z" class="cls-7" transform="translate(-18.67 -18.67)"/></g></g></g></g></g></g></svg>