/* XPM */
static char *linux[] = {
/* columns rows colors chars-per-pixel */
"20 20 92 1 ",
"  c #00048D",
". c #00048E",
"X c #00058E",
"o c #01058E",
"O c #00068E",
"+ c #00068F",
"@ c #00078F",
"# c #01078F",
"$ c #02078F",
"% c #00088F",
"& c #01088F",
"* c #02088F",
"= c #000790",
"- c #020990",
"; c #060D91",
": c #060D92",
"> c #080F93",
", c #091093",
"< c #121897",
"1 c #141A98",
"2 c #141A99",
"3 c #171E99",
"4 c #181E9A",
"5 c #19209A",
"6 c #1C229B",
"7 c #1C229C",
"8 c #1E249C",
"9 c #1E259C",
"0 c #1E249D",
"q c #1E259D",
"w c #21279D",
"e c #23279D",
"r c #23279E",
"t c #22289E",
"y c #282EA1",
"u c #2B31A2",
"i c #2C32A2",
"p c #2C32A3",
"a c #3137A5",
"s c #3339A6",
"d c #373CA7",
"f c #3C42AA",
"g c #3D43AA",
"h c #3E43AA",
"j c #4146AC",
"k c #4349AD",
"l c #4C52B1",
"z c #4E53B1",
"x c #4E53B2",
"c c #5055B3",
"v c #656ABC",
"b c #666ABC",
"n c #7276C1",
"m c #797DC4",
"M c #7C80C6",
"N c #8589CA",
"B c #8689CA",
"V c #9699D2",
"C c #999CD3",
"Z c #9A9DD3",
"A c #9DA0D5",
"S c #9EA1D5",
"D c #AAACDA",
"F c #AAADDA",
"G c #ABAEDB",
"H c #ACAEDB",
"J c #ACAFDB",
"K c #ADB0DC",
"L c #B3B5DE",
"P c #B4B6DF",
"I c #B5B7E0",
"U c #BFC1E4",
"Y c #CDCEEA",
"T c #DBDCF0",
"R c #E0E0F1",
"E c #E2E3F3",
"W c #E5E6F5",
"Q c #E6E7F5",
"! c #E7E7F5",
"~ c #EBEBF7",
"^ c #F4F5FB",
"/ c #F5F5FB",
"( c #F6F6FC",
") c #F7F7FC",
"_ c #F8F9FD",
"` c #FBFBFE",
"' c #FCFCFE",
"] c #FDFDFF",
"[ c #FEFDFF",
"{ c #FEFEFF",
"} c #FFFFFF",
"| c None",
/* pixels */
"|||||||=@@@@@|||||||",
"|||||@@@@@@@@@%|||||",
"||||@@@@@@@@@@@@||||",
"|||@@@@@@@@@@@@@@|||",
"||%@@@@@@@@@@@@@@@||",
"||@@@@@@@@@@@@@@@@||",
"|@@@@@@@@@@@@@@@@@@|",
"|@@@@@-pzd;@@@@@@@@|",
"|@@@@@ mTTC8@@@@@@@|",
"|@@@@@@fR})H8@@@@@@|",
"|@@@@  lE}')Dr=@@@@|",
"|@  >4fY`}}'`Pj<@@@|",
"|,dznD~}}''''}QCcy;|",
"|wD}}}}'''}}}'}}`V5|",
"||v/}''''}''}''}/v||",
"||wS}'}}''}'''}'St||",
"|||aD}}}`}'''}`Fa|||",
"||||pBQ}}''}}QNu||||",
"|||||4fmLYYLmf3|||||",
"|||||||280082|||||||"
};
