/* XPM */
static char *linux_fedora[] = {
/* columns rows colors chars-per-pixel */
"60 7 2 1 ",
"  c #000890",
". c None",
/* pixels */
"  ..  .  .. .................................  .............",
"  ..  .  .  ................................................",
"  ..  .  .    .   .    ..        ..    ..    . ..    ..    .",
"  ..  .  .  ...  .....  .  .  .. ....  ..  ..  .. ..  .  .  ",
"  ..  .  .. ... ...     .  .. .. ..    ..  ..  .. ..  .     ",
"  .  ..  .. ... ...  .  .  .. .. .. .. ..  ..  .. ..  .  ...",
".    ..  ..   . ...     .  .. .. ..    ..  ... .. ..  ..    "
};
