/* XPM */
static char *linux_fedora_logo[] = {
/* columns rows colors chars-per-pixel */
"85 20 49 1 ",
"  c #00078F",
". c #00088F",
"X c #00098F",
"o c #000790",
"O c #000791",
"+ c #000890",
"@ c #000990",
"# c #000891",
"$ c #000991",
"% c #030B91",
"& c #0A1294",
"* c #0C1395",
"= c #0E1796",
"- c #0F1797",
"; c #1C239D",
": c #1E259C",
"> c #20279E",
", c #272EA1",
"< c #2B32A3",
"1 c #2F36A4",
"2 c #3036A5",
"3 c #383EA8",
"4 c #484EAF",
"5 c #4C52B1",
"6 c #6C71BF",
"7 c #7478C2",
"8 c #7A7EC5",
"9 c #7C80C6",
"0 c #7E82C7",
"q c #7F83C8",
"w c #8E92CE",
"e c #A0A3D6",
"r c #C0C2E4",
"t c #C6C8E7",
"y c #D1D2EB",
"u c #E0E1F2",
"i c #E9EAF6",
"p c #EAEBF6",
"a c #ECEDF7",
"s c #EEEEF8",
"d c #F1F1F9",
"f c #F2F2FA",
"g c #F5F5FB",
"h c #F6F6FC",
"j c #F9F9FD",
"k c #FAFAFD",
"l c #FBFBFE",
"z c #FEFEFF",
"x c None",
/* pixels */
"xxxxxxxxxxxxxxxxxxxxxxxxxxxxxxxxxxxxxxxxxxxxxxxxxxxxxxxxxxxxxxxxxxxxxxxxxxxxxxxxxxxxx",
"xxxxxxxxxxxxxxxxxxxxxxxxxxxxxxxxxxxxxxxxxxxxxxxxxxxxxxxxxxxxxxxxxxxxxxxxxxxxxxxxxxxxx",
"xxxxxxxxx@o@o@@xxxxxxxxxxxxxxxxxxxxxxxxxxxxxxxxxxxxxxxxxxxxxxxxxxxxxxxxxxxxxxxxxxxxxx",
"xxxxxxx@@o@o@@o@xxxxxxxxxxxxxxxxxxxxxxxxxxxxxxxxxxxxxxxxxxxxxxxxxxxxxxxxxxxxxxxxxxxxx",
"xxxxxx@oo@o@o@o@oxxxxxxxxxxxxxxxxxxxxxxxxxxxxxxxxxxxxxxxxxxxxxxxxxxxxxxxxxxxxxxxxxxxx",
"xxxxx@o@@o@o@o@o@oxxxxxxxxxxxxxxxxxxxxxxxxxxxxxxxxxxxxxxxxxxxxxxxxxxxxxxxxxxxxxxxxxxx",
"xxxxxo@oo@o@o@o@o@xxxxxxxx.xxoxxxxxxxxxxxxxxxxxxxxxxxxxxxxxxxxxxxxx@xxxxxxxxxxxxxxxxx",
"xxxxx@o@@o@o@o@o@o@xx..xxx@xx@xx@xxxxxxxxxxxxxxxxxxxxxxxxxxxxxxxxxxxxxxxxxxxxxxxxxxxx",
"xxxx@o@oo5ft1oooo@oxx@.xxx@xxoxxo@xx@x@xxo@o@x@oo@xx@@xxx@@@oxx@xoxoxxo@@oxxxo@@xxxxx",
"xxxxo@o@@@fzs2o@@o@xx .xxxoxx@xx@xxxo@xx@xxo@x@@xo@@xo@xOox@@xxooxx@xx@@x@xx@@xooxxxx",
"xxxx.@@o@,lzzp3@o@@xx @xxxoxx@xx@xxxoxx@@xxoox@@xxoxxx@xoxxx@xx@xxxoxx@xx@ox@xx@@xxxx",
"xxxx@o >7pzzzzg8=@oxx@oxxx@xxoxxoxxx@xx@oxx@@x@xxx@xxx@x@xxxoxxoxxx@xxoxxo@xo@@xxxxxx",
"xxxxx6azzzzzzzzzhe@xxx@xxooxx@xx@xxx@xxxoxx@ox@xxx@xxx@xo@xx@xx@xxxoxxoxxo@x@oxxxxxxx",
"xxxxx<lzzzzzzzzzzqxxxxo@@o@xx@@xo@ox@xxx@@@@@x@xxx@xxx@xxo@@oxxoxxx@xxoxxo@xx@@oxxxxx",
"xxxxxx0zzzzzzzzzy*xxxxxxxxxxxxxxxxxxxxxxxxxxxxxxxxxxxxxxxxxxxxxxxxxxxxxxxxxxxxxxxxxxx",
"xxxxxx%wzzzzzzzy:xxxxxxxxxxxxxxxxxxxxxxxxxxxxxxxxxxxxxxxxxxxxxxxxxxxxxxxxxxxxxxxxxxxx",
"xxxxxxx@4rlzzu8&xxxxxxxxxxxxxxxxxxxxxxxxxxxxxxxxxxxxxxxxxxxxxxxxxxxxxxxxxxxxxxxxxxxxx",
"xxxxxxxxx@=,;oxxxxxxxxxxxxxxxxxxxxxxxxxxxxxxxxxxxxxxxxxxxxxxxxxxxxxxxxxxxxxxxxxxxxxxx",
"xxxxxxxxxxxxxxxxxxxxxxxxxxxxxxxxxxxxxxxxxxxxxxxxxxxxxxxxxxxxxxxxxxxxxxxxxxxxxxxxxxxxx",
"xxxxxxxxxxxxxxxxxxxxxxxxxxxxxxxxxxxxxxxxxxxxxxxxxxxxxxxxxxxxxxxxxxxxxxxxxxxxxxxxxxxxx"
};
