<?xml version="1.0" encoding="UTF-8" standalone="no"?>
<!-- Created with Inkscape (http://www.inkscape.org/) -->

<svg
   width="1000"
   height="1000"
   viewBox="0 0 264.58333 264.58334"
   version="1.1"
   id="svg5"
   xmlns="http://www.w3.org/2000/svg"
   xmlns:svg="http://www.w3.org/2000/svg">
  <defs
     id="defs2" />
  <g
     id="layer1">
    <g
       id="surface85753"
       transform="matrix(6.740206,0,0,7.0163291,-29.473277,-36.100232)">
      <path
         style="fill:#00078f;fill-opacity:1;fill-rule:evenodd;stroke:none"
         d="M 24,5.3125 C 34.320312,5.3125 42.6875,13.679688 42.6875,24 42.6875,34.320312 34.320312,42.6875 24,42.6875 13.679688,42.6875 5.3125,34.320312 5.3125,24 5.3125,13.679688 13.679688,5.3125 24,5.3125"
         id="path1984" />
      <path
         style="fill:#fdfdff;fill-opacity:1;fill-rule:nonzero;stroke:none"
         d="M 39.765625,29.972656 C 36.984375,29.332031 34.261719,28.382812 32.402344,27.296875 27.3125,24.335938 25.550781,17.851562 18.371094,20.261719 24.042969,26.878906 14.527344,28.929688 8.085938,29.566406 10.386719,36.144531 16.632812,40.875 24,40.875 c 7.214844,0 13.351562,-4.535156 15.765625,-10.902344"
         id="path1986" />
    </g>
    <g
       id="g976"
       transform="matrix(0.41074351,0,0,0.41074351,109.91193,105.90591)">
      <g
         id="g919">
	<path
   style="fill:#5c6670"
   d="m 169,132.803 c -19.99,0 -36.197,16.206 -36.197,36.197 0,19.991 16.207,36.197 36.197,36.197 19.991,0 36.197,-16.206 36.197,-36.197 0,-19.991 -16.206,-36.197 -36.197,-36.197 z m 0,62.848 c -14.719,0 -26.65,-11.933 -26.65,-26.651 0,-14.719 11.932,-26.651 26.65,-26.651 14.72,0 26.651,11.933 26.651,26.651 0,14.719 -11.931,26.651 -26.651,26.651 z"
   id="path911" />

	<path
   style="fill:#c3c6c8"
   d="M 169,0 C 75.664,0 0,75.664 0,169 0,262.336 75.664,338 169,338 262.337,338 338,262.336 338,169 338,75.664 262.337,0 169,0 Z m 0,205.197 c -19.99,0 -36.197,-16.206 -36.197,-36.197 0,-19.991 16.207,-36.197 36.197,-36.197 19.991,0 36.197,16.206 36.197,36.197 0,19.991 -16.206,36.197 -36.197,36.197 z"
   id="path913" />

	<path
   style="fill:#a4a9ad"
   d="m 169,110.413 c -32.356,0 -58.587,26.229 -58.587,58.587 0,32.358 26.231,58.587 58.587,58.587 32.357,0 58.588,-26.229 58.588,-58.587 0,-32.358 -26.231,-58.587 -58.588,-58.587 z m 0,94.784 c -19.99,0 -36.197,-16.206 -36.197,-36.197 0,-19.991 16.207,-36.197 36.197,-36.197 19.991,0 36.197,16.206 36.197,36.197 0,19.991 -16.206,36.197 -36.197,36.197 z"
   id="path915" />

	<path
   style="fill:#dcddde"
   d="m 258.943,25.909 -58.769,93.495 c 8.546,5.383 15.609,12.904 20.421,21.826 L 317.838,88.892 C 303.959,63.158 283.598,41.439 258.943,25.909 Z M 48.702,287.684 c 9.816,9.951 20.853,18.693 32.876,25.974 l 57.116,-94.51 c -4.167,-2.525 -7.991,-5.557 -11.395,-9.007 z M 169,227.587 c -2.681,0 -5.315,-0.197 -7.9,-0.545 L 146.206,336.465 C 153.662,337.47 161.269,338 169,338 c 6.46,0 12.832,-0.375 19.103,-1.081 L 175.622,227.204 c -2.176,0.245 -4.382,0.383 -6.622,0.383 z"
   id="path917" />

</g>
      <g
         id="g921">
</g>
      <g
         id="g923">
</g>
      <g
         id="g925">
</g>
      <g
         id="g927">
</g>
      <g
         id="g929">
</g>
      <g
         id="g931">
</g>
      <g
         id="g933">
</g>
      <g
         id="g935">
</g>
      <g
         id="g937">
</g>
      <g
         id="g939">
</g>
      <g
         id="g941">
</g>
      <g
         id="g943">
</g>
      <g
         id="g945">
</g>
      <g
         id="g947">
</g>
      <g
         id="g949">
</g>
    </g>
  </g>
</svg>
