<?xml version="1.0" encoding="UTF-8"?>
<!-- Created with Inkscape (http://www.inkscape.org/) -->
<svg width="250" height="250" inkscape:version="1.1 (c68e22c387, 2021-05-23)" sodipodi:docname="ultramarine-anaconda-sus.svg" version="1.1" viewBox="0 0 250 250" xml:space="preserve" xmlns="http://www.w3.org/2000/svg" xmlns:inkscape="http://www.inkscape.org/namespaces/inkscape" xmlns:sodipodi="http://sodipodi.sourceforge.net/DTD/sodipodi-0.dtd"><defs><clipPath id="clipPath16"><path d="m0 48h48v-48h-48z"/></clipPath></defs><sodipodi:namedview bordercolor="#666666" borderopacity="1.0" inkscape:current-layer="g8" inkscape:cx="128.73039" inkscape:cy="88.393211" inkscape:pagecheckerboard="0" inkscape:pageopacity="0.0" inkscape:pageshadow="2" inkscape:window-height="1022" inkscape:window-maximized="1" inkscape:window-width="1920" inkscape:window-x="0" inkscape:window-y="28" inkscape:zoom="2.0080728" pagecolor="#ffffff" showgrid="false"/><g transform="matrix(1.3333 0 0 -1.3333 0 64)" inkscape:groupmode="layer" inkscape:label="ultramarine-anaconda-sus"><g transform="matrix(4.772 0 0 4.772 -20.778 -160.28)"><g clip-path="url(#clipPath16)"><g transform="translate(24,42.689)"><path d="m0 0c10.322 0 18.689-8.367 18.689-18.689s-8.367-18.689-18.689-18.689-18.689 8.367-18.689 18.689 8.367 18.689 18.689 18.689" fill="#000890" fill-rule="evenodd"/></g><g transform="translate(39.766 18.027)"><path d="m0 0c-2.783 0.64-5.504 1.591-7.364 2.674-5.09 2.962-6.851 9.448-14.032 7.039 5.674-6.62-3.843-8.67-10.285-9.305 2.302-6.581 8.549-11.309 15.915-11.309 7.213 0 13.352 4.534 15.766 10.901" fill="#fefeff"/></g></g></g></g></svg>
