<?xml version="1.0" encoding="UTF-8" standalone="no"?>
<svg
   version="1.1"
   width="698.1825"
   height="151.5267"
   id="svg2855"
   xmlns="http://www.w3.org/2000/svg"
   xmlns:svg="http://www.w3.org/2000/svg"
   xmlns:rdf="http://www.w3.org/1999/02/22-rdf-syntax-ns#"
   xmlns:cc="http://creativecommons.org/ns#"
   xmlns:dc="http://purl.org/dc/elements/1.1/">
  <metadata
     id="metadata20">
    <rdf:RDF>
      <cc:Work
         rdf:about="">
        <dc:format>image/svg+xml</dc:format>
        <dc:type
           rdf:resource="http://purl.org/dc/dcmitype/StillImage" />
      </cc:Work>
    </rdf:RDF>
  </metadata>
  <defs
     id="defs2857">
    <mask
       maskUnits="userSpaceOnUse"
       id="mask-powermask-path-effect287">
      <path
         id="mask-powermask-path-effect287_box"
         style="fill:#ffffff;fill-opacity:1"
         d="M -19.689,-38.378 H 19.689 V 1 h -39.378 z" />
      <g
         id="g285"
         transform="translate(15.765901,-24.6618)"
         style="fill:#000000">
        <path
           d="m 0,0 c -2.783,0.64 -5.504,1.591 -7.364,2.674 -5.09,2.962 -6.851,9.448 -14.032,7.039 5.674,-6.62 -3.843,-8.67 -10.285,-9.305 2.302,-6.581 8.549,-11.309 15.915,-11.309 7.213,0 13.352,4.534 15.766,10.901"
           style="fill:#000000;fill-opacity:1;fill-rule:nonzero;stroke:none"
           id="path283" />
      </g>
    </mask>
  </defs>
  <g
     id="g838"
     transform="matrix(3.2840195,0,0,-3.2840195,95.982875,13.349172)"
     style="fill:#ffffff"
     mask="url(#mask-powermask-path-effect287)">
    <path
       d="m 0,0 c 10.322,0 18.689,-8.367 18.689,-18.689 0,-10.322 -8.367,-18.689 -18.689,-18.689 -10.322,0 -18.689,8.367 -18.689,18.689 C -18.689,-8.367 -10.322,0 0,0"
       style="fill:#ffffff;fill-opacity:1;fill-rule:evenodd;stroke:none"
       id="path840" />
  </g>
  <text
     xml:space="preserve"
     style="font-weight:600;font-size:80.4611px;line-height:1.25;font-family:'Montserrat Alternates';-inkscape-font-specification:'Montserrat Alternates Semi-Bold';fill:#ffffff;fill-opacity:1;stroke-width:2.01152"
     x="172.28215"
     y="103.3097"
     id="text13535"
     transform="scale(0.97420026,1.026483)"><tspan
       id="tspan13533"
       x="172.28215"
       y="103.3097"
       style="stroke-width:2.01152;fill:#ffffff">Ultramarine</tspan></text>
  <rect
     style="fill:none;stroke-width:4.7811;stroke-linejoin:round;paint-order:stroke markers fill"
     id="rect145"
     width="847.09882"
     height="267.49658"
     x="-93.40625"
     y="-56.62373"
     ry="85.093399" />
  <rect
     style="fill:none;stroke-width:4.7811;stroke-linejoin:round;paint-order:stroke markers fill"
     id="rect42"
     width="755.88354"
     height="203.45145"
     x="-31.80081"
     y="-28.124529"
     ry="85.093399" />
  <rect
     style="fill:none;stroke-width:5.02728;stroke-linejoin:round;paint-order:stroke markers fill"
     id="rect165"
     width="698.1825"
     height="151.5267"
     x="0"
     y="0"
     ry="75.763351" />
</svg>
