<svg xmlns="http://www.w3.org/2000/svg" xmlns:svg="http://www.w3.org/2000/svg" id="svg2855" width="698.183" height="151.527" version="1.1"><metadata id="metadata20"/><defs id="defs2857"><clipPath id="clipPath836" clipPathUnits="userSpaceOnUse"><path id="path834" d="M 0,48 H 48 V 0 H 0 Z"/></clipPath><clipPath id="clipPath852" clipPathUnits="userSpaceOnUse"><path id="path850" d="M 0,48 H 48 V 0 H 0 Z"/></clipPath><mask id="mask-powermask-path-effect287" maskUnits="userSpaceOnUse"><path id="mask-powermask-path-effect287_box" d="M -19.689,-38.378 H 19.689 V 1 h -39.378 z" style="fill:#fff;fill-opacity:1"/><g id="g285" transform="translate(15.765901,-24.6618)" style="fill:#000"><path style="fill:#000;fill-opacity:1;fill-rule:nonzero;stroke:none" id="path283" d="m 0,0 c -2.783,0.64 -5.504,1.591 -7.364,2.674 -5.09,2.962 -6.851,9.448 -14.032,7.039 5.674,-6.62 -3.843,-8.67 -10.285,-9.305 2.302,-6.581 8.549,-11.309 15.915,-11.309 7.213,0 13.352,4.534 15.766,10.901"/></g></mask><filter id="mask-powermask-path-effect287_inverse" width="100" height="100" x="-50" y="-50" style="color-interpolation-filters:sRGB"><feColorMatrix id="mask-powermask-path-effect287_primitive1" result="fbSourceGraphic" type="saturate" values="1"/><feColorMatrix id="mask-powermask-path-effect287_primitive2" in="fbSourceGraphic" values="-1 0 0 0 1 0 -1 0 0 1 0 0 -1 0 1 0 0 0 1 0"/></filter></defs><g id="g838" mask="url(#mask-powermask-path-effect287)" transform="matrix(3.2840195,0,0,-3.2840195,95.982875,13.349172)" style="fill:#fff"><path style="fill:#fff;fill-opacity:1;fill-rule:evenodd;stroke:none" id="path840" d="m 0,0 c 10.322,0 18.689,-8.367 18.689,-18.689 0,-10.322 -8.367,-18.689 -18.689,-18.689 -10.322,0 -18.689,8.367 -18.689,18.689 C -18.689,-8.367 -10.322,0 0,0"/></g><text style="font-weight:600;font-size:80.4611px;line-height:1.25;font-family:'Montserrat Alternates';-inkscape-font-specification:'Montserrat Alternates Semi-Bold';fill:#fff;fill-opacity:1;stroke-width:2.01152" id="text13535" x="172.282" y="103.31" transform="scale(0.97420026,1.026483)" xml:space="preserve"><tspan id="tspan13533" x="172.282" y="103.31" style="stroke-width:2.01152;fill:#fff">Ultramarine</tspan></text><rect style="fill:none;stroke-width:4.7811;stroke-linejoin:round;paint-order:stroke markers fill" id="rect145" width="847.099" height="267.497" x="-93.406" y="-56.624" ry="85.093"/><rect style="fill:none;stroke-width:4.7811;stroke-linejoin:round;paint-order:stroke markers fill" id="rect42" width="755.884" height="203.451" x="-31.801" y="-28.125" ry="85.093"/><rect style="fill:none;stroke-width:5.02728;stroke-linejoin:round;paint-order:stroke markers fill" id="rect165" width="698.183" height="151.527" x="0" y="0" ry="75.763"/></svg>