<svg xmlns="http://www.w3.org/2000/svg" width="250" height="250" version="1.1" viewBox="0 0 250 250" xml:space="preserve"><defs><clipPath id="clipPath16"><path d="m0 48h48v-48h-48z"/></clipPath></defs><g><g><g clip-path="url(#clipPath16)" transform="matrix(1.3333 0 0 -1.3333 0 64) matrix(4.772 0 0 4.772 -20.778 -160.28)"><g><path fill="#000890" fill-rule="evenodd" d="m0 0c10.322 0 18.689-8.367 18.689-18.689s-8.367-18.689-18.689-18.689-18.689 8.367-18.689 18.689 8.367 18.689 18.689 18.689" transform="translate(24,42.689)"/></g><g><path fill="#fefeff" d="m0 0c-2.783 0.64-5.504 1.591-7.364 2.674-5.09 2.962-6.851 9.448-14.032 7.039 5.674-6.62-3.843-8.67-10.285-9.305 2.302-6.581 8.549-11.309 15.915-11.309 7.213 0 13.352 4.534 15.766 10.901" transform="translate(39.766 18.027)"/></g></g></g></g></svg>