<svg xmlns="http://www.w3.org/2000/svg" xmlns:svg="http://www.w3.org/2000/svg" xmlns:xlink="http://www.w3.org/1999/xlink" id="svg5" width="512" height="512" version="1.1" viewBox="0 0 135.467 135.467"><defs id="defs2"><linearGradient id="linearGradient23250"><stop style="stop-color:navy;stop-opacity:1" id="stop23248" offset="0"/></linearGradient><clipPath id="clipPath16"><path id="path1178" d="M 0,48 H 48 V 0 H 0 Z"/></clipPath><clipPath id="clipPath16-3"><path id="path4733" d="M 0,48 H 48 V 0 H 0 Z"/></clipPath><clipPath id="clip1"><path id="path35311" d="m 183,8 h 35.37109 V 68 H 183 Z m 0,0"/></clipPath><clipPath id="clip2"><path id="path35314" d="M 0,0 H 92 V 91.210938 H 0 Z m 0,0"/></clipPath><clipPath id="clip1-5"><path id="path46697" d="m 183,8 h 35.37109 V 68 H 183 Z m 0,0"/></clipPath><clipPath id="clip2-3"><path id="path46700" d="M 0,0 H 92 V 91.210938 H 0 Z m 0,0"/></clipPath><clipPath id="clip1-2"><path id="path61841" d="m 183,8 h 35.37109 V 68 H 183 Z m 0,0"/></clipPath><clipPath id="clip2-9"><path id="path61844" d="M 0,0 H 92 V 91.210938 H 0 Z m 0,0"/></clipPath><linearGradient id="linearGradient23252" x1="192.733" x2="612.449" y1="68.816" y2="68.816" gradientUnits="userSpaceOnUse" xlink:href="#linearGradient23250"/><clipPath id="clipPath16-5"><path id="path1178-3" d="M 0,48 H 48 V 0 H 0 Z"/></clipPath><clipPath id="clipPath16-3-5"><path id="path4733-6" d="M 0,48 H 48 V 0 H 0 Z"/></clipPath><clipPath id="clip1-29"><path id="path35311-1" d="m 183,8 h 35.37109 V 68 H 183 Z m 0,0"/></clipPath><clipPath id="clip2-2"><path id="path35314-7" d="M 0,0 H 92 V 91.210938 H 0 Z m 0,0"/></clipPath><clipPath id="clip1-5-0"><path id="path46697-9" d="m 183,8 h 35.37109 V 68 H 183 Z m 0,0"/></clipPath><clipPath id="clip2-3-3"><path id="path46700-6" d="M 0,0 H 92 V 91.210938 H 0 Z m 0,0"/></clipPath><clipPath id="clip1-2-0"><path id="path61841-6" d="m 183,8 h 35.37109 V 68 H 183 Z m 0,0"/></clipPath><clipPath id="clip2-9-2"><path id="path61844-6" d="M 0,0 H 92 V 91.210938 H 0 Z m 0,0"/></clipPath><clipPath id="clipPath836" clipPathUnits="userSpaceOnUse"><path id="path834" d="M 0,48 H 48 V 0 H 0 Z"/></clipPath><clipPath id="clipPath852" clipPathUnits="userSpaceOnUse"><path id="path850" d="M 0,48 H 48 V 0 H 0 Z"/></clipPath><mask id="mask-powermask-path-effect287" maskUnits="userSpaceOnUse"><path id="mask-powermask-path-effect287_box" d="M -19.689,-38.378 H 19.689 V 1 h -39.378 z" style="fill:#fff;fill-opacity:1"/><g id="g285" transform="translate(15.765901,-24.6618)" style="fill:#000"><path style="fill:#000;fill-opacity:1;fill-rule:nonzero;stroke:none" id="path283" d="m 0,0 c -2.783,0.64 -5.504,1.591 -7.364,2.674 -5.09,2.962 -6.851,9.448 -14.032,7.039 5.674,-6.62 -3.843,-8.67 -10.285,-9.305 2.302,-6.581 8.549,-11.309 15.915,-11.309 7.213,0 13.352,4.534 15.766,10.901"/></g></mask></defs><g id="layer1"><g id="g7956" transform="matrix(1.0347582,0,0,1.0347582,-7.2706752,-0.42478214)"><g id="g913" transform="matrix(1.5072549,0,0,1.5072549,-40.465416,-41.082535)"><g id="g911"><path id="path889" d="m 108.861,69.866 c -0.062,-0.271 -0.231,-0.509 -0.47,-0.654 L 87.106,55.963 68.998,35.625 c -0.287,-0.318 -0.771,-0.349 -1.093,-0.069 l -5.746,5.006 -4.81,-2.98 c -0.489,-0.305 -1.133,-0.156 -1.44,0.332 l -11.41,18.031 -6.466,5.632 c -0.156,0.135 -0.252,0.329 -0.266,0.537 -0.014,0.207 0.059,0.411 0.195,0.565 l 1.361,1.528 -4.051,6.424 c -0.149,0.235 -0.198,0.521 -0.135,0.795 0.062,0.272 0.231,0.509 0.469,0.655 L 59.4,86.757 77.301,106.862 c 0.154,0.173 0.367,0.261 0.581,0.261 0.182,0 0.363,-0.062 0.511,-0.191 l 5.593,-4.872 2.663,1.651 c 0.172,0.107 0.363,0.158 0.552,0.158 0.349,0 0.689,-0.174 0.889,-0.49 l 6.924,-10.926 13.252,-11.544 c 0.156,-0.136 0.252,-0.329 0.266,-0.537 0.013,-0.207 -0.058,-0.41 -0.195,-0.566 l -3.147,-3.535 3.537,-5.61 c 0.149,-0.235 0.198,-0.522 0.134,-0.795 z m -51.732,-29.952 3.374,2.09 -10.417,9.074 z M 37.613,70.855 40.776,65.839 54.63,81.4 Z m 49.258,30.525 -1.229,-0.762 3.795,-3.306 z m -8.918,3.875 -18.635,-20.929 -0.012,-0.029 -0.031,-0.02 -19.628,-22.044 28.699,-24.999 19.071,21.419 0.018,0.041 0.043,0.026 19.174,21.535 z M 103.736,74.64 92.127,61.601 l 14.26,8.835 z"/><path id="path893" d="m 95.076,82.269 c 0.076,0.086 0.183,0.13 0.29,0.13 0.092,0 0.185,-0.032 0.259,-0.099 0.16,-0.143 0.175,-0.388 0.031,-0.549 L 91.427,77 c -0.141,-0.16 -0.388,-0.175 -0.549,-0.031 -0.16,0.142 -0.175,0.388 -0.031,0.549 z"/><path id="path895" d="m 91.411,74.86 c 0.091,0 0.182,-0.031 0.256,-0.096 l 2.981,-2.598 c 0.161,-0.141 0.179,-0.387 0.037,-0.549 -0.141,-0.16 -0.385,-0.179 -0.549,-0.037 l -2.981,2.598 c -0.161,0.141 -0.179,0.387 -0.037,0.549 0.077,0.088 0.185,0.133 0.293,0.133 z"/><path id="path897" d="m 69.245,53.242 c 0.076,0.086 0.184,0.13 0.29,0.13 0.092,0 0.185,-0.032 0.259,-0.099 0.16,-0.142 0.176,-0.388 0.031,-0.548 l -4.232,-4.752 c -0.142,-0.16 -0.388,-0.175 -0.549,-0.032 -0.16,0.143 -0.175,0.389 -0.031,0.549 z"/><path id="path899" d="M 56.295,64.515 52.062,59.76 c -0.141,-0.16 -0.388,-0.176 -0.549,-0.032 -0.16,0.143 -0.175,0.389 -0.031,0.549 l 4.233,4.755 c 0.076,0.086 0.183,0.13 0.29,0.13 0.092,0 0.185,-0.032 0.26,-0.099 0.159,-0.142 0.173,-0.388 0.03,-0.548 z"/><path id="path901" d="m 72.53,53.657 c 0.091,0 0.182,-0.031 0.256,-0.096 l 2.983,-2.599 c 0.161,-0.141 0.179,-0.387 0.037,-0.549 -0.142,-0.161 -0.386,-0.179 -0.549,-0.037 l -2.983,2.599 c -0.161,0.141 -0.179,0.387 -0.037,0.549 0.077,0.088 0.185,0.133 0.293,0.133 z"/><path id="path903" d="m 81.168,85.938 c -0.141,-0.159 -0.388,-0.175 -0.549,-0.031 -0.16,0.143 -0.175,0.389 -0.031,0.549 l 4.23,4.751 c 0.076,0.086 0.183,0.13 0.29,0.13 0.092,0 0.185,-0.032 0.259,-0.099 0.16,-0.143 0.175,-0.389 0.031,-0.549 z"/><path id="path905" d="m 78.313,85.372 -2.986,2.598 c -0.162,0.141 -0.18,0.386 -0.038,0.548 0.076,0.089 0.185,0.134 0.293,0.134 0.091,0 0.182,-0.031 0.255,-0.096 l 2.986,-2.598 c 0.162,-0.141 0.18,-0.386 0.038,-0.548 -0.139,-0.162 -0.386,-0.18 -0.548,-0.038 z"/><path id="path907" d="m 68.408,81.486 -2.985,2.599 c -0.162,0.141 -0.181,0.387 -0.038,0.548 0.076,0.089 0.185,0.134 0.293,0.134 0.091,0 0.182,-0.031 0.255,-0.096 l 2.985,-2.599 c 0.162,-0.141 0.18,-0.387 0.037,-0.548 -0.139,-0.162 -0.385,-0.178 -0.547,-0.038 z"/><path id="path909" d="m 55.795,67.325 -2.98,2.6 c -0.161,0.143 -0.18,0.388 -0.037,0.55 0.077,0.088 0.186,0.133 0.293,0.133 0.091,0 0.182,-0.03 0.256,-0.097 l 2.98,-2.6 c 0.16,-0.142 0.179,-0.387 0.037,-0.549 -0.141,-0.16 -0.385,-0.178 -0.549,-0.037 z"/></g></g><path style="fill:#fff;stroke:none;stroke-width:1.03854" id="path1281" d="M 108.99803,277.6643 C 84.463314,262.48953 63.855303,249.53784 63.202454,248.88275 c -0.891087,-0.89414 0.844157,-4.42323 6.960613,-14.1563 4.481187,-7.13088 8.585339,-13.11115 9.120339,-13.28948 1.018567,-0.33952 75.421724,82.71929 74.724024,83.417 -0.22045,0.22044 -20.47468,-12.01491 -45.0094,-27.18967 z" transform="scale(0.26458334)"/><path style="fill:#fff;stroke:none;stroke-width:1.03854" id="path1320" d="m 136.7942,129.69952 c 0.49166,-1.27043 34.7491,-55.900965 35.65556,-56.860108 0.46142,-0.488244 18.11827,10.573819 18.12053,11.352567 0.002,0.705656 -51.83886,45.968611 -53.31051,46.546081 -0.56255,0.22074 -0.77206,-0.24661 -0.46558,-1.03854 z" transform="scale(0.26458334)"/><path style="fill:#fff;stroke:none;stroke-width:1.03854" id="path1552" d="m 406.74674,234.5902 c -16.76312,-18.8628 -30.25034,-34.52406 -29.97159,-34.80281 0.27875,-0.27874 17.37564,9.91834 37.9931,22.6602 25.7574,15.91841 37.32215,23.61612 36.96169,24.60238 -0.91124,2.49324 -13.25346,21.934 -13.89334,21.884 -0.3363,-0.0263 -14.32673,-15.48098 -31.08986,-34.34377 z" transform="scale(0.26458334)"/><path style="fill:#00f;stroke:none;stroke-width:1.03854" id="path1591" d="M 181.98687,321.38566 73.27563,199.28393 117.6439,160.62269 c 24.40255,-21.26369 61.08269,-53.22323 81.51143,-71.021213 l 37.14315,-32.359961 4.48141,4.872142 c 2.46477,2.679679 50.1938,56.279852 106.06451,119.111492 55.87072,62.83165 102.92629,115.67202 104.56796,117.42306 l 2.98485,3.18371 -80.96969,70.53444 c -44.53332,38.79394 -81.36562,70.66642 -81.84954,70.82773 -0.48393,0.16131 -49.79993,-54.65248 -109.59111,-121.80843 z m 151.72015,41.75728 c 0.39908,-2.05774 -24.15361,-29.77174 -26.3757,-29.77174 -0.81478,0 -1.48142,0.87356 -1.48142,1.94126 0,2.37688 24.74571,30.48611 26.36393,29.94737 0.63655,-0.21191 1.30848,-1.16452 1.49319,-2.11689 z m -50.0723,-17.49397 c 9.78045,-8.35473 13.73871,-12.54609 13.19252,-13.96942 -1.01044,-2.63319 -3.15023,-1.46231 -12.62235,6.90683 -6.27211,5.54175 -9.23149,8.84481 -8.83958,9.86612 0.94639,2.46625 2.85972,1.81757 8.26941,-2.80353 z m -51.78343,-26.2233 c 8.08089,-6.92918 10.63591,-10.97942 6.92616,-10.97942 -2.09768,0 -20.16487,15.39294 -20.16487,17.18013 0,1.54463 2.10996,2.53597 3.63488,1.70782 0.5712,-0.3102 4.89292,-3.86905 9.60383,-7.90853 z m 98.70438,-15.7096 c 15.44459,-13.45433 28.36554,-25.20374 28.71323,-26.10982 0.3477,-0.90607 -0.016,-2.63307 -0.80824,-3.83777 C 356.245,270.39921 252.7734,154.34065 251.10851,153.35731 c -0.80625,-0.47619 -2.043,-0.64435 -2.74835,-0.37369 -2.96765,1.1388 -77.08591,66.56329 -77.97522,68.82905 -0.76324,1.94456 -0.51912,2.9908 1.12781,4.83353 1.15605,1.29347 17.43749,19.64346 36.18097,40.77774 35.47295,39.99762 36.43723,41.02231 38.60407,41.02231 0.72861,0 5.40489,-3.50507 10.39174,-7.78905 4.98686,-4.28397 9.40607,-7.78905 9.82048,-7.78905 0.41441,0 7.83581,7.94483 16.49202,17.65518 9.32824,10.46422 16.49899,17.65517 17.60557,17.65517 1.02686,0 14.5035,-11.00809 29.94807,-24.46243 z m 61.48264,9.41611 c 1.07133,-1.29088 -0.48932,-3.53262 -9.47934,-13.61612 -5.919,-6.63895 -11.73861,-13.26605 -12.93246,-14.72689 -2.28935,-2.80132 -6.08382,-2.65283 -5.43552,0.2127 0.37485,1.65683 24.81609,29.67561 25.88652,29.67561 0.37307,0 1.25542,-0.69538 1.9608,-1.5453 z M 378.0295,263.52941 c 8.19052,-7.12364 10.21424,-10.18403 7.74389,-11.7108 -1.00533,-0.62133 -4.97525,2.43382 -16.49187,12.69169 -4.45926,3.97187 -5.04609,6.54852 -1.49142,6.54852 0.87028,0 5.47801,-3.38823 10.2394,-7.52941 z M 159.51715,239.1819 c 9.16387,-7.91993 10.70775,-10.20727 7.67506,-11.37103 -1.36761,-0.52481 -5.77855,2.89541 -19.0827,14.79655 -1.57362,1.40767 -0.88913,4.56499 0.98965,4.56499 0.64486,0 5.33295,-3.59572 10.41799,-7.99051 z m 8.95869,-24.90005 c 0.53838,-1.61707 -25.54663,-30.67665 -27.0787,-30.16658 -3.03901,1.01178 -0.90662,4.49765 10.85577,17.74623 11.83568,13.33113 15.09015,15.82278 16.22293,12.42035 z m 102.12275,-71.7423 c 9.19905,-7.98907 10.69685,-10.16952 7.75988,-11.29654 -1.71202,-0.65697 -20.28139,14.63933 -20.28139,16.70656 0,1.4841 1.01482,2.63867 2.31928,2.63867 0.514,0 5.10501,-3.62191 10.20223,-8.04869 z m -24.98399,4.54962 c 0,-0.78209 -5.67469,-7.81368 -12.61042,-15.62575 -11.79103,-13.28085 -15.04979,-15.77433 -16.1798,-12.3802 -0.6141,1.84453 24.54499,29.42794 26.8415,29.42794 1.0718,0 1.94872,-0.6399 1.94872,-1.42199 z" transform="scale(0.26458334)"/><path style="fill:#00f;stroke:none;stroke-width:1.03854" id="path1630" d="m 286.65551,300.62198 c -7.83713,-8.84231 -15.44199,-17.01508 -16.8997,-18.16171 -2.51438,-1.97781 -2.78875,-1.99537 -5.34711,-0.34217 -1.4832,0.95843 -6.09913,4.77392 -10.25761,8.47886 -6.58819,5.86966 -7.72384,6.52622 -8.82759,5.10349 -0.69669,-0.89804 -15.28699,-17.35464 -32.42289,-36.57026 -17.1359,-19.21561 -31.23584,-35.25832 -31.33319,-35.65046 -0.0973,-0.39215 15.02326,-13.87378 33.60136,-29.95918 l 33.77835,-29.24618 46.77677,52.61332 c 25.72722,28.93733 48.10817,54.03481 49.73544,55.7722 l 2.95869,3.15886 -22.00074,19.16974 c -12.10041,10.54335 -22.79087,19.74138 -23.7566,20.44007 -1.53267,1.10887 -3.56719,-0.77329 -16.00518,-14.80658 z" transform="scale(0.26458334)"/><path style="fill:#fff;stroke:none;stroke-width:1.03854" id="path1669" d="m 338.06014,419.61792 c -1.41946,-1.09063 -2.35414,-2.15302 -2.07708,-2.36086 0.27707,-0.20785 4.13654,-3.57822 8.5766,-7.48973 4.44007,-3.9115 8.26462,-6.92006 8.499,-6.68568 0.55609,0.55609 -10.84925,18.57253 -11.73824,18.54232 -0.3737,-0.0127 -1.84082,-0.91543 -3.26028,-2.00605 z" transform="scale(0.26458334)"/></g><path id="path3074" d="m 128.97416,23.772178 -6.88006,-6.887617 a 1.3277333,1.3277333 0 0 0 -1.87844,0 l -13.72242,13.714884 -7.491144,7.491124 -10.018355,10.01836 a 1.3051015,1.3051015 0 0 0 -0.316831,0.512969 l -3.545647,10.425747 a 1.3277333,1.3277333 0 0 0 1.682297,1.689824 l 10.425718,-3.545647 a 1.3428211,1.3428211 0 0 0 0.512969,-0.316831 l 10.025933,-10.01836 0.94299,-0.942995 5.57497,-5.574969 0.97316,-0.973161 13.71486,-13.729978 a 1.3277333,1.3277333 0 0 0 0,-1.86335 z m -2.8893,-1.01844 -28.667,28.666977 c -1.259826,1.259827 -3.017566,1.652131 -3.771951,0.859995 a 1.7803695,1.7803695 0 0 1 -0.362108,-1.652101 4.330221,4.330221 0 0 1 1.222103,-2.150043 L 123.1729,19.811628 Z m -4.93373,-4.93371 1.50876,1.50877 -28.666955,28.666965 a 4.3226769,4.3226769 0 0 1 -2.150043,1.222103 1.7728257,1.7728257 0 0 1 -1.652101,-0.362109 z M 90.583065,58.074456 a 4.4056603,4.4056603 0 0 0 -2.776179,-2.77615 l 1.991601,-5.86919 a 2.5121316,2.5121316 0 0 0 2.172654,0.460163 4.2472376,4.2472376 0 0 0 0.852468,-0.271724 4.1717983,4.1717983 0 0 0 -0.271441,0.852468 2.466868,2.466868 0 0 0 0.573332,2.323542 2.836521,2.836521 0 0 0 3.176008,0.286666 2.9345923,2.9345923 0 0 0 0.150832,3.017566 z M 107.24763,45.498721 97.07839,55.667941 c -0.754385,-0.814746 -0.362109,-2.51968 0.882632,-3.771949 l 28.666998,-28.666977 1.44088,1.44088 z" style="stroke:#000;stroke-width:.754393"/><path style="fill:#fff;stroke:#000;stroke-width:.12115" id="path7513" d="m 94.096472,52.53881 c -0.794317,-0.428179 -1.011454,-1.406469 -0.572631,-2.57996 0.202699,-0.542055 1.775367,-2.156254 14.955739,-15.350625 11.45205,-11.464238 14.76457,-14.715518 14.88815,-14.61295 0.0874,0.07258 0.71324,0.728337 1.3907,1.457301 l 1.23175,1.325371 -14.57993,14.5803 c -15.612907,15.613291 -15.098757,15.13585 -16.452434,15.277766 -0.347293,0.03643 -0.683964,-0.0015 -0.861344,-0.0972 z"/><path style="fill:#fff;stroke:#000;stroke-width:.12115" id="path7552" d="m 96.868243,55.281544 c -0.218132,-0.573717 -0.132184,-1.294472 0.251862,-2.112227 0.344275,-0.733074 1.375874,-1.794039 14.933075,-15.358094 l 14.56322,-14.570613 0.68653,0.698976 0.68654,0.698976 -15.40768,15.482132 c -8.47421,8.515176 -15.449917,15.47977 -15.50154,15.476873 -0.0516,-0.003 -0.147023,-0.145099 -0.212007,-0.316023 z"/><path style="fill:#fff;stroke:#000;stroke-width:.12115;stroke-opacity:1" id="path7591" d="m 90.664583,49.083014 -0.452041,-0.214512 15.467198,-15.483082 15.46718,-15.483082 0.73418,0.734175 0.73418,0.734177 -14.5984,14.582034 C 95.493066,46.462499 93.323784,48.579471 92.75215,48.849363 c -0.91496,0.431996 -1.525589,0.500336 -2.087567,0.233651 z"/><path style="fill:#fff;stroke:#000;stroke-width:.12115" id="path7630" d="m 90.381564,57.512597 c -0.295299,-0.654859 -1.198694,-1.578812 -1.879542,-1.922309 -0.294403,-0.148534 -0.556184,-0.288805 -0.581728,-0.311709 -0.03975,-0.03568 1.783358,-5.613459 1.870406,-5.722402 0.0172,-0.02157 0.199017,0.04753 0.403964,0.153467 0.567635,0.293541 1.330833,0.349111 1.991531,0.145016 0.531901,-0.164306 0.578243,-0.163159 0.510785,0.01268 -0.532059,1.386523 -0.1807,2.639805 0.905876,3.231197 0.62322,0.339198 1.628443,0.423954 2.245544,0.18933 0.302936,-0.115173 0.320119,-0.104642 0.24708,0.151438 -0.202043,0.708406 -0.209202,1.386477 -0.02015,1.910743 0.108119,0.299849 0.208762,0.592735 0.223663,0.650869 0.02052,0.08023 -3.112268,1.195692 -5.496206,1.956958 -0.136214,0.04353 -0.25967,-0.087 -0.421216,-0.445236 z"/><rect style="fill:none;stroke-width:1.265;stroke-linejoin:round;paint-order:stroke markers fill" id="rect145" width="224.128" height="70.775" x="122.66" y="-51.446" ry="22.514"/><rect style="fill:none;stroke-width:1.265;stroke-linejoin:round;paint-order:stroke markers fill" id="rect42" width="199.994" height="53.83" x="138.96" y="-43.906" ry="22.514"/><rect style="fill:none;stroke-width:1.33013;stroke-linejoin:round;paint-order:stroke markers fill" id="rect165" width="184.727" height="40.091" x="147.374" y="-36.465" ry="20.046"/><path style="fill:#00f;stroke:#00f;stroke-width:4.83;fill-opacity:1;stroke-opacity:1;stroke-miterlimit:4;stroke-dasharray:none" id="path9268" d="m 276.59596,331.25462 c -3.45959,-3.53656 -10.89043,-11.47049 -16.51299,-17.63096 -5.62256,-6.16046 -10.67732,-11.47712 -11.2328,-11.81479 -0.6255,-0.38024 -4.43899,2.22478 -10.01769,6.84314 -4.95425,4.1014 -9.91733,7.70252 -11.02905,8.00248 -2.54449,0.68655 -2.19884,1.04894 -45.47983,-47.68202 -23.00567,-25.90255 -33.39384,-38.18143 -33.39384,-39.47171 0,-1.9978 11.9463,-13.14887 47.7073,-44.53154 23.29762,-20.44523 32.57373,-28.15739 33.86742,-28.15739 1.79566,0 13.63155,12.96449 76.12522,83.38407 35.84093,40.38654 37.27773,42.08519 37.27773,44.07152 0,1.30399 -3.29712,4.8107 -11.40827,12.13347 -20.96435,18.92667 -47.51409,41.28385 -49.02566,41.28385 -0.32306,0 -3.41795,-2.89355 -6.87754,-6.43012 z m 12.60986,-9.11861 c 4.32643,-3.6529 41.31162,-35.65219 42.99579,-37.1996 0.96559,-0.88718 -1.55448,-4.09028 -15.40613,-19.58183 -9.10831,-10.18663 -32.16209,-36.06913 -51.23062,-57.51668 -19.06854,-21.44754 -34.9291,-39.09496 -35.24568,-39.21648 -0.83652,-0.32111 -64.31202,54.78159 -68.41897,59.39409 -1.52356,1.71111 -1.50737,1.79183 0.9803,4.88589 5.66952,7.05153 63.69679,71.92303 64.58932,72.20754 0.53012,0.16898 3.51701,-1.87049 6.63754,-4.53216 11.88513,-10.13749 13.44463,-11.22197 15.42323,-10.72538 1.03738,0.26037 6.5417,5.62231 12.23181,11.9154 14.6985,16.25612 21.71213,23.47255 22.8129,23.47255 0.52523,0 2.60897,-1.3965 4.63051,-3.10334 z" transform="scale(0.26458334)"/><g id="g838" mask="url(#mask-powermask-path-effect287)" transform="matrix(0.97509427,0,0,-0.97509427,65.881536,46.342641)" style="fill:#fff"><path style="fill:#fff;fill-opacity:1;fill-rule:evenodd;stroke:none" id="path840" d="m 0,0 c 10.322,0 18.689,-8.367 18.689,-18.689 0,-10.322 -8.367,-18.689 -18.689,-18.689 -10.322,0 -18.689,8.367 -18.689,18.689 C -18.689,-8.367 -10.322,0 0,0"/></g></g></svg>