<?xml version="1.0" encoding="UTF-8" standalone="no"?>
<!-- Created with Inkscape (http://www.inkscape.org/) -->

<svg
   width="224"
   height="224"
   viewBox="0 0 260.77333 260.77333"
   version="1.1"
   id="svg5"
   inkscape:version="1.1 (c68e22c387, 2021-05-23)"
   sodipodi:docname="ultramarine-redesign.svg"
   inkscape:export-filename="/home/cappy/git/ultramarine-logos/_reference/icons/hicolor/16x16/apps/fedora-logo-icon_classic.png"
   inkscape:export-xdpi="1.5359999"
   inkscape:export-ydpi="1.5359999"
   xmlns:inkscape="http://www.inkscape.org/namespaces/inkscape"
   xmlns:sodipodi="http://sodipodi.sourceforge.net/DTD/sodipodi-0.dtd"
   xmlns="http://www.w3.org/2000/svg"
   xmlns:svg="http://www.w3.org/2000/svg">
  <sodipodi:namedview
     id="namedview7"
     pagecolor="#ffffff"
     bordercolor="#666666"
     borderopacity="1.0"
     inkscape:pageshadow="2"
     inkscape:pageopacity="0.0"
     inkscape:pagecheckerboard="0"
     inkscape:document-units="mm"
     showgrid="false"
     units="px"
     width="800px"
     inkscape:zoom="0.45795779"
     inkscape:cx="284.96076"
     inkscape:cy="675.82648"
     inkscape:window-width="1584"
     inkscape:window-height="934"
     inkscape:window-x="205"
     inkscape:window-y="38"
     inkscape:window-maximized="0"
     inkscape:current-layer="layer1"
     scale-x="4.4"
     lock-margins="true"
     fit-margin-top="0"
     fit-margin-left="0"
     fit-margin-right="0"
     fit-margin-bottom="0" />
  <defs
     id="defs2" />
  <g
     inkscape:label="Layer 1"
     inkscape:groupmode="layer"
     id="layer1"
     transform="translate(-6.3340674,-1.1740163)">
    <g
       id="surface85753"
       transform="matrix(6.740206,0,0,7.0163291,-29.473277,-36.100232)">
      <path
         style="fill:#00078f;fill-opacity:1;fill-rule:evenodd;stroke:none"
         d="M 24,5.3125 C 34.320312,5.3125 42.6875,13.679688 42.6875,24 42.6875,34.320312 34.320312,42.6875 24,42.6875 13.679688,42.6875 5.3125,34.320312 5.3125,24 5.3125,13.679688 13.679688,5.3125 24,5.3125"
         id="path1984" />
      <path
         style="fill:#fdfdff;fill-opacity:1;fill-rule:nonzero;stroke:none"
         d="M 39.765625,29.972656 C 36.984375,29.332031 34.261719,28.382812 32.402344,27.296875 27.3125,24.335938 25.550781,17.851562 18.371094,20.261719 24.042969,26.878906 14.527344,28.929688 8.085938,29.566406 10.386719,36.144531 16.632812,40.875 24,40.875 c 7.214844,0 13.351562,-4.535156 15.765625,-10.902344"
         id="path1986" />
    </g>
  </g>
</svg>
